<svg width="720" height="564" viewBox="0 0 720 564" fill="none" xmlns="http://www.w3.org/2000/svg">
<path d="M719.925 495.635H-37V496.013H719.925V495.635Z" fill="#EBEBEB"/>
<path d="M644.081 519.992H593.943V520.371H644.081V519.992Z" fill="#EBEBEB"/>
<path d="M371.528 515.375H325.779V515.754H371.528V515.375Z" fill="#EBEBEB"/>
<path d="M592.429 505.944H486.626V506.322H592.429V505.944Z" fill="#EBEBEB"/>
<path d="M295.441 508.487H42.4166V508.866H295.441V508.487Z" fill="#EBEBEB"/>
<path d="M318.497 508.487H308.915V508.866H318.497V508.487Z" fill="#EBEBEB"/>
<path d="M321.783 428.117H29.4732C27.1833 428.113 24.9885 427.2 23.3707 425.58C21.7529 423.959 20.8442 421.763 20.8442 419.473V8.56839C20.8642 6.2916 21.7816 4.11461 23.3973 2.51029C25.0129 0.905976 27.1963 0.00390027 29.4732 0H321.783C324.075 0 326.274 0.910714 327.895 2.53179C329.516 4.15287 330.427 6.35153 330.427 8.64408V419.473C330.427 421.765 329.516 423.964 327.895 425.585C326.274 427.206 324.075 428.117 321.783 428.117ZM29.4732 0.302771C27.2836 0.306781 25.1851 1.17939 23.6383 2.72906C22.0915 4.27873 21.2227 6.37883 21.2227 8.56839V419.473C21.2227 421.662 22.0915 423.762 23.6383 425.312C25.1851 426.862 27.2836 427.734 29.4732 427.738H321.783C323.973 427.734 326.074 426.862 327.623 425.313C329.172 423.764 330.044 421.664 330.048 419.473V8.56839C330.044 6.37744 329.172 4.27737 327.623 2.72813C326.074 1.1789 323.973 0.306773 321.783 0.302771H29.4732Z" fill="#EBEBEB"/>
<path d="M649.243 428.117H356.919C354.628 428.113 352.431 427.201 350.811 425.581C349.191 423.96 348.279 421.764 348.275 419.473V8.56839C348.299 6.29022 349.22 4.11325 350.838 2.50935C352.456 0.905447 354.641 0.00385773 356.919 0H649.243C651.518 0.00787883 653.697 0.911715 655.31 2.51561C656.922 4.1195 657.837 6.29421 657.857 8.56839V419.473C657.857 421.76 656.951 423.954 655.336 425.574C653.722 427.195 651.531 428.109 649.243 428.117ZM356.919 0.302771C354.728 0.306773 352.628 1.1789 351.079 2.72813C349.529 4.27737 348.657 6.37744 348.653 8.56839V419.473C348.657 421.664 349.529 423.764 351.079 425.313C352.628 426.862 354.728 427.734 356.919 427.738H649.243C651.434 427.734 653.534 426.862 655.084 425.313C656.633 423.764 657.505 421.664 657.509 419.473V8.56839C657.505 6.37744 656.633 4.27737 655.084 2.72813C653.534 1.1789 651.434 0.306773 649.243 0.302771H356.919Z" fill="#EBEBEB"/>
<path d="M636.118 40.0262H472.925V220.28H636.118V40.0262Z" fill="#F5F5F5"/>
<path d="M471.093 220.265H472.925V40.0111H471.093V220.265Z" fill="#EBEBEB"/>
<path d="M593.534 94.7973C588.359 89.6269 581.343 86.7226 574.028 86.7226C566.713 86.7226 559.697 89.6269 554.522 94.7973C549.29 89.9358 542.376 87.2932 535.235 87.4255C528.095 87.5579 521.284 90.4549 516.235 95.507C511.187 100.559 508.295 107.372 508.169 114.513C508.042 121.654 510.69 128.566 515.555 133.794L554.552 172.806L593.564 133.794C598.729 128.618 601.628 121.602 601.622 114.289C601.617 106.977 598.707 99.9656 593.534 94.7973Z" fill="white"/>
<path opacity="0.3" d="M256.823 202.069C256.822 180.596 250.668 159.573 239.088 141.49C227.509 123.407 210.99 109.022 191.487 100.037C171.984 91.0525 150.315 87.8453 129.046 90.7953C107.777 93.7454 87.7989 102.729 71.4777 116.682C55.1566 130.636 43.1762 148.974 36.9553 169.526C30.7345 190.078 30.5339 211.982 36.3772 232.645C42.2206 253.307 53.8631 271.862 69.9259 286.112C85.9888 300.362 105.799 309.71 127.011 313.049C125.788 313.955 124.883 315.223 124.423 316.673C123.962 318.123 123.971 319.682 124.447 321.127C124.923 322.572 125.842 323.83 127.074 324.722C128.306 325.615 129.788 326.096 131.31 326.098H134.338L124.27 495.65H164.524L154.457 326.098H157.575C159.1 326.103 160.587 325.625 161.823 324.732C163.059 323.84 163.981 322.579 164.457 321.13C164.933 319.681 164.937 318.119 164.471 316.667C164.004 315.216 163.09 313.949 161.859 313.049C188.317 308.903 212.424 295.443 229.835 275.095C247.247 254.747 256.818 228.849 256.823 202.069ZM144.465 296.624C125.761 296.621 107.478 291.071 91.9274 280.677C76.377 270.283 64.2581 255.512 57.1031 238.23C49.948 220.948 48.0783 201.933 51.7302 183.589C55.3822 165.245 64.3918 148.395 77.6198 135.172C90.8478 121.948 107.7 112.944 126.045 109.298C144.391 105.651 163.405 107.527 180.685 114.688C197.964 121.848 212.732 133.972 223.121 149.526C233.51 165.079 239.054 183.364 239.051 202.069C239.051 214.488 236.604 226.786 231.85 238.26C227.096 249.734 220.129 260.159 211.345 268.94C202.562 277.721 192.135 284.685 180.659 289.435C169.184 294.185 156.885 296.628 144.465 296.624Z" fill="#E6E6E6"/>
<path opacity="0.6" d="M114.385 288.721C66.5322 288.721 32.0921 249.922 37.4663 202.069C42.8404 154.216 86.0155 115.401 133.868 115.401C181.721 115.401 216.176 154.201 210.787 202.069C205.398 249.937 162.192 288.721 114.385 288.721Z" fill="#FAFAFA"/>
<path d="M133.808 115.416H132.173L37.6177 200.434C37.6177 200.979 37.4814 201.524 37.4209 202.069C35.1341 220.269 39.2267 238.699 49.0018 254.221L184.022 132.855C169.838 121.35 152.07 115.179 133.808 115.416Z" fill="white"/>
<path d="M191.955 140.47L55.6326 263.092C59.7449 267.794 64.4463 271.946 69.6205 275.445L202.582 155.851C199.706 150.294 196.135 145.126 191.955 140.47Z" fill="white"/>
<path d="M236.416 202.069C243.395 140.001 198.737 89.7259 136.699 89.7259C74.6616 89.7259 18.7097 140.031 11.7308 202.069C5.38779 258.172 41.3266 304.662 94.1297 313.049C93.1522 313.705 92.3254 314.561 91.7042 315.56C91.083 316.56 90.6816 317.68 90.5267 318.847C90.3969 319.76 90.4674 320.691 90.7331 321.574C90.9988 322.457 91.4535 323.272 92.0657 323.962C92.6778 324.652 93.4326 325.2 94.2779 325.569C95.1231 325.938 96.0385 326.119 96.9606 326.098H100.064L70.9375 495.635H111.191L120.183 326.083H123.211C125.2 326.038 127.108 325.282 128.588 323.952C130.068 322.622 131.023 320.805 131.28 318.832C131.419 317.75 131.281 316.65 130.879 315.635C130.476 314.621 129.822 313.726 128.979 313.034C183.75 304.662 230.104 258.172 236.416 202.069ZM113.431 296.624C61.2186 296.624 23.6297 254.236 29.5034 202.069C35.3772 149.901 82.4731 107.483 134.701 107.483C186.929 107.483 224.502 149.871 218.629 202.054C212.755 254.236 165.659 296.624 113.431 296.624Z" fill="#F0F0F0"/>
<path d="M497.753 371.968C483.068 354.09 490.092 323.252 507.562 317.621C525.032 311.989 537.567 296.866 543.274 282.545C548.981 268.224 572.249 239.294 600.104 234.798C627.959 230.302 626.354 223.914 654.421 216.057C682.488 208.2 707.406 235.086 674.343 244.608C641.281 254.13 664.912 296.79 630.26 312.958C595.608 329.126 596.789 348.579 593.594 370.681C590.4 392.784 530.194 411.48 497.753 371.968Z" fill="#EBEBEB"/>
<path d="M494.952 429.616L493.438 429.237C513.678 352.424 559.957 300.984 595.199 271.358C633.378 239.264 667.243 225.14 667.591 225.004L668.167 226.396C667.818 226.533 634.135 240.596 596.122 272.554C561.107 302.043 515.086 353.212 494.952 429.616Z" fill="#FAFAFA"/>
<path d="M459.179 393.752C437.123 382.777 427.313 347.762 439.681 333.335C452.049 318.908 455.168 297.229 452.761 279.76C450.354 262.29 455.788 221.158 477.739 202.735C499.69 184.311 495.058 178.513 515.585 156.593C536.113 134.672 571.719 149.72 547.74 175.864C523.76 202.008 566.481 233.875 544.545 267.634C522.61 301.392 533.706 320.618 542.335 344.84C550.964 369.062 507.986 418.019 459.179 393.752Z" fill="#E6E6E6"/>
<path d="M479.601 427.163C459.921 370.893 472.214 304.541 486.02 258.793C501.159 208.503 523.397 167.159 531.436 161.906L532.268 163.163C518.734 172.094 443.89 320.603 481.055 426.694L479.601 427.163Z" fill="#FAFAFA"/>
<path d="M538.657 407.892H443.178L452.821 495.635H529.013L538.657 407.892Z" fill="#F5F5F5"/>
<path d="M252.145 283.09C230.119 289.327 196.466 301.619 178.497 310.899C197.632 290.765 238.324 277.458 254.28 273.053C233.798 272.584 184.264 275.687 184.264 275.687C200.36 271.236 216.716 267.783 233.237 265.348C220.869 262.214 208.259 259.762 199.569 259.428C223.609 251.859 263.318 262.623 267.314 264.076C270.902 259.883 282.271 248.62 292.777 251.345C287.887 253.555 281.03 260.624 275.792 267.27C285.931 262.809 297.272 261.871 308.007 264.606C298.151 265.514 279.092 272.432 275.504 285.436C280.727 314.2 283.77 372.331 284.148 413.902H290.839C297.561 353.984 312.442 261.109 324.81 224.898C325.052 221.355 330.154 206.898 336.21 204.794C341.675 202.886 396.249 188.55 427.207 198.602C415.581 199.041 398.444 202.311 381.474 206.474C412.326 210.637 445.222 220.25 445.222 220.25C445.222 220.25 379.657 216.132 352.302 216.753C372.905 222.597 425.209 240.324 447.75 267.149C415.656 249.588 342.22 223.914 328.156 224.761C327.626 225.927 327.066 227.35 326.354 229.167C322.434 239.082 310.489 293.793 306.129 321.875C303.102 340.858 297.379 384.473 294.019 413.872H327.081L321.964 426.467H319.224L309.066 495.635H257.595L247.316 426.467H244.576L239.459 413.872H281.59C281.378 392.375 280.727 364.687 280.152 351.879C279.38 335.227 276.443 305.979 274.202 290.856C269.661 292.128 253.674 305.404 246.438 316.697C250.305 306.199 256.062 296.496 263.424 288.071C252.191 291.689 234.66 299.561 224.79 307.402C232.373 297.72 241.64 289.484 252.145 283.09Z" fill="#E6E6E6"/>
<path d="M341.463 564C503.569 564 634.983 556.328 634.983 546.863C634.983 537.399 503.569 529.727 341.463 529.727C179.356 529.727 47.9421 537.399 47.9421 546.863C47.9421 556.328 179.356 564 341.463 564Z" fill="#F5F5F5"/>
<path d="M213.996 95.4331C231.679 95.4331 246.014 81.0982 246.014 63.4152C246.014 45.7322 231.679 31.3972 213.996 31.3972C196.313 31.3972 181.978 45.7322 181.978 63.4152C181.978 81.0982 196.313 95.4331 213.996 95.4331Z" fill="#263238"/>
<path d="M250.526 507.957L239.459 515.269L221.702 491.093L232.768 483.781L250.526 507.957Z" fill="#7F3E3B"/>
<path d="M238.521 514.073L250.632 506.095C250.832 505.948 251.081 505.885 251.327 505.919C251.573 505.953 251.796 506.081 251.949 506.277L259.049 515.36C259.221 515.605 259.343 515.882 259.406 516.174C259.469 516.467 259.472 516.769 259.416 517.063C259.359 517.357 259.244 517.637 259.077 517.885C258.91 518.134 258.694 518.346 258.443 518.509C254.053 521.309 247.634 525.2 242.154 528.833C235.75 533.057 236.674 535.994 228.075 538.477C222.868 539.99 220.778 534.934 222.898 533.829C232.526 528.742 231.148 526.623 236.31 516.738C236.817 515.681 237.576 514.766 238.521 514.073Z" fill="#263238"/>
<path opacity="0.2" d="M221.702 491.108L230.861 503.567L241.927 496.24L232.783 483.781L221.702 491.108Z" fill="black"/>
<path d="M223.276 117.929C206.624 114.22 189.548 113.872 172.199 115.446C169.295 115.723 166.547 116.889 164.331 118.786C162.115 120.683 160.538 123.217 159.816 126.043C155.864 142.105 149.007 178.332 150.097 233.526L220.112 234.662C221.55 224.822 220.415 179.194 232.223 133.143C232.688 131.556 232.822 129.891 232.619 128.25C232.415 126.609 231.878 125.027 231.04 123.601C230.201 122.176 229.08 120.937 227.745 119.962C226.41 118.986 224.889 118.294 223.276 117.929Z" fill="#263238"/>
<path d="M181.116 127.799L182.962 133.022C183.054 133.276 183.211 133.502 183.419 133.675C183.626 133.848 183.877 133.962 184.143 134.006L186.808 134.415C187.289 134.484 187.78 134.388 188.2 134.142L193.272 131.115L188.094 126.376L181.116 127.799Z" fill="#212741"/>
<path d="M187.05 132.825C186.069 132.419 184.999 132.278 183.946 132.416C180.828 137.791 175.726 153.504 174.288 160.514C178.557 174.865 180.48 176.439 180.48 176.439L186.686 159.969C186.686 159.969 185.869 142.62 187.05 132.825Z" fill="#212741"/>
<path d="M212.982 82.9438C210.151 92.36 206.533 109.739 212.558 116.627C206.851 121.396 199.479 126.861 188.11 126.422C176.741 125.983 179.496 118.307 182.902 114.417C193.802 112.661 194.316 104.728 193.211 97.1589L212.982 82.9438Z" fill="#7F3E3B"/>
<path d="M215.556 116.067C214.799 115.64 214.003 115.285 213.179 115.007C212.975 114.933 212.753 114.926 212.545 114.989C212.338 115.052 212.156 115.18 212.028 115.355C210.696 117.096 206.291 125.029 188.094 126.422C190.789 128.45 193.983 134.218 195.331 137.019C201.023 134.778 215.98 127.935 216.055 116.99C216.061 116.806 216.018 116.623 215.93 116.461C215.842 116.299 215.713 116.163 215.556 116.067Z" fill="white"/>
<path d="M182.947 114.856C183.004 114.696 183.019 114.524 182.992 114.357C182.965 114.189 182.896 114.032 182.792 113.897C182.688 113.763 182.552 113.658 182.397 113.59C182.242 113.522 182.072 113.494 181.903 113.508C181.271 113.57 180.644 113.671 180.026 113.811C179.881 113.85 179.743 113.911 179.617 113.993C178.103 115.128 169.262 125.12 175.075 134.521C176.937 132.326 182.645 127.451 188.094 126.422C183.401 123.651 181.479 119.185 182.947 114.856Z" fill="white"/>
<path opacity="0.2" d="M204.928 88.7419L193.226 97.1589C193.516 98.9248 193.643 100.714 193.605 102.503C197.738 102.215 203.763 98.158 204.626 93.9192C205.034 92.2253 205.137 90.4719 204.928 88.7419Z" fill="black"/>
<path d="M222.247 70.9693C218.069 83.5039 216.191 91.0278 208.183 96.19C196.072 103.941 182.115 94.767 182.539 81.4451C182.902 69.4403 189.669 50.941 203.293 48.534C216.918 46.127 226.41 58.4194 222.247 70.9693Z" fill="#7F3E3B"/>
<path d="M217.448 79.7799L209.985 76.7522C209.985 76.7522 218.916 66.9576 219.431 61.0233C205.579 58.9039 186.293 59.3126 194.286 46.3843C199.675 37.6797 206.003 37.6948 217.705 41.6763C236.901 48.2161 234.358 64.9744 230.028 74.5268C225.698 84.0792 217.448 79.7799 217.448 79.7799Z" fill="#263238"/>
<path d="M220.9 79.7345C220.804 79.7317 220.712 79.694 220.642 79.6285C217.137 76.381 213.02 73.8644 208.531 72.2258C208.433 72.1914 208.353 72.1196 208.307 72.026C208.262 71.9324 208.255 71.8246 208.289 71.7262C208.305 71.6782 208.329 71.6337 208.362 71.5953C208.395 71.557 208.435 71.5257 208.48 71.5031C208.526 71.4805 208.575 71.4672 208.625 71.4639C208.675 71.4607 208.726 71.4675 208.774 71.484C213.368 73.1598 217.582 75.7328 221.172 79.0533C221.242 79.1266 221.282 79.2242 221.282 79.3258C221.282 79.4273 221.242 79.525 221.172 79.5983C221.102 79.6771 221.005 79.7259 220.9 79.7345Z" fill="white"/>
<path d="M193.59 83.3526C194.746 83.6647 195.952 83.7452 197.14 83.5893C198.327 83.4334 199.472 83.0443 200.508 82.4443C200.573 82.3938 200.618 82.3229 200.637 82.2432C200.657 82.1635 200.648 82.0797 200.614 82.0053C200.555 81.9488 200.476 81.9173 200.394 81.9173C200.313 81.9173 200.234 81.9488 200.175 82.0053C199.027 82.644 197.749 83.0128 196.437 83.0836C195.126 83.1544 193.815 82.9254 192.606 82.414C192.527 82.3828 192.44 82.3826 192.361 82.4135C192.282 82.4444 192.218 82.5041 192.182 82.5805C192.164 82.6172 192.154 82.657 192.152 82.6977C192.15 82.7383 192.157 82.7789 192.171 82.8171C192.185 82.8552 192.206 82.8901 192.234 82.9197C192.262 82.9493 192.296 82.973 192.333 82.9893C192.745 83.1336 193.164 83.2549 193.59 83.3526Z" fill="#263238"/>
<path d="M222.958 85.7142C220.624 88.0893 217.475 89.4905 214.148 89.6351C209.803 89.741 208.91 85.6233 211.12 82.0658C213.164 78.8867 217.902 74.981 221.717 76.5554C225.532 78.1298 225.835 82.7622 222.958 85.7142Z" fill="#7F3E3B"/>
<path d="M187.353 363.581C188.866 297.684 205.398 234.389 205.398 234.389L150.717 233.511C150.717 233.511 154.063 328.687 155.017 368.562C156.001 410.011 224.518 504.142 224.518 504.142L243.274 491.744C243.274 491.744 188.821 415.597 187.353 363.581Z" fill="#212741"/>
<g style="mix-blend-mode:multiply" opacity="0.2">
<path d="M192.394 270.646C176.165 291.976 181.918 332.093 187.428 360.433C188.657 329.097 192.281 297.902 198.267 267.119L192.394 270.646Z" fill="black"/>
</g>
<path d="M223.67 505.338L245.969 490.593L241.14 483.69L217.69 498.617L223.67 505.338Z" fill="#263238"/>
<path d="M202.915 69.7885C202.627 70.8179 201.87 71.5446 201.204 71.3932C200.538 71.2418 200.22 70.3032 200.493 69.2586C200.765 68.2141 201.537 67.5026 202.203 67.654C202.87 67.8053 203.187 68.7591 202.915 69.7885Z" fill="#263238"/>
<path d="M191.077 67.5934C190.804 68.6228 190.032 69.3495 189.366 69.1981C188.7 69.0467 188.397 68.1081 188.67 67.0635C188.942 66.019 189.714 65.3075 190.38 65.4589C191.046 65.6102 191.364 66.6094 191.077 67.5934Z" fill="#263238"/>
<path d="M194.316 68.8045C192.196 71.364 189.754 73.6385 187.05 75.5714C188.382 77.3577 191.667 77.2366 191.667 77.2366L194.316 68.8045Z" fill="#630F0F"/>
<path d="M207.744 66.9273C207.847 66.9631 207.959 66.9631 208.062 66.9273C208.213 66.8605 208.333 66.7389 208.397 66.5872C208.462 66.4355 208.467 66.2648 208.41 66.1098C208.063 65.2099 207.496 64.4114 206.761 63.7873C206.026 63.1631 205.146 62.7333 204.202 62.5371C204.036 62.5187 203.87 62.5628 203.736 62.6609C203.601 62.759 203.508 62.9038 203.475 63.067C203.455 63.1458 203.452 63.228 203.466 63.3081C203.481 63.3882 203.512 63.4644 203.557 63.5317C203.603 63.5989 203.663 63.6557 203.732 63.6982C203.801 63.7408 203.879 63.7681 203.96 63.7785C204.703 63.9367 205.394 64.2788 205.97 64.7733C206.547 65.2679 206.99 65.8992 207.26 66.6094C207.302 66.7026 207.371 66.7818 207.456 66.8381C207.542 66.8943 207.642 66.9252 207.744 66.9273Z" fill="#263238"/>
<path d="M186.565 61.6137C186.656 61.6614 186.758 61.6864 186.861 61.6864C186.963 61.6864 187.065 61.6614 187.156 61.6137C187.794 61.1283 188.538 60.7988 189.326 60.6517C190.115 60.5045 190.927 60.5436 191.697 60.766C191.856 60.822 192.031 60.8157 192.185 60.7482C192.34 60.6808 192.463 60.5573 192.53 60.4026C192.562 60.3293 192.578 60.2503 192.579 60.1704C192.579 60.0905 192.563 60.0113 192.532 59.9377C192.501 59.8641 192.455 59.7976 192.398 59.7422C192.34 59.6868 192.272 59.6437 192.197 59.6154C191.241 59.3267 190.23 59.2668 189.247 59.4403C188.263 59.6139 187.335 60.0161 186.535 60.6146C186.466 60.659 186.407 60.7167 186.36 60.7843C186.314 60.8518 186.281 60.9279 186.264 61.0081C186.248 61.0884 186.247 61.1712 186.262 61.2517C186.277 61.3323 186.308 61.409 186.353 61.4775C186.41 61.5413 186.484 61.5885 186.565 61.6137Z" fill="#263238"/>
<path d="M237.158 516.42C237.187 516.369 237.203 516.312 237.203 516.253C237.203 516.195 237.187 516.137 237.158 516.087C237.131 516.031 237.087 515.986 237.033 515.956C236.979 515.926 236.917 515.914 236.855 515.92C236.189 515.92 230.391 516.662 229.498 518.297C229.412 518.449 229.367 518.621 229.367 518.796C229.367 518.972 229.412 519.144 229.498 519.296C229.608 519.547 229.779 519.766 229.996 519.933C230.213 520.1 230.469 520.209 230.739 520.25C232.602 520.522 235.523 517.994 237.098 516.45L237.158 516.42ZM230.149 518.494C230.815 517.646 233.782 516.98 236.038 516.662C233.828 518.675 231.951 519.78 230.906 519.69C230.728 519.66 230.56 519.586 230.417 519.475C230.274 519.364 230.161 519.219 230.089 519.054C230.051 518.995 230.031 518.927 230.031 518.857C230.031 518.787 230.051 518.719 230.089 518.66C230.087 518.599 230.109 518.54 230.149 518.494Z" fill="#212741"/>
<path d="M237.158 516.42C237.158 516.42 237.158 516.42 237.158 516.344C237.188 516.296 237.203 516.241 237.203 516.185C237.203 516.129 237.188 516.074 237.158 516.026C237.067 515.905 234.993 513.104 232.889 512.877C232.582 512.844 232.271 512.872 231.974 512.96C231.678 513.048 231.402 513.195 231.163 513.392C230.497 513.937 230.497 514.452 230.634 514.77C231.179 516.162 235.175 516.813 236.946 516.541C236.988 516.536 237.029 516.523 237.065 516.503C237.102 516.482 237.133 516.454 237.158 516.42ZM231.315 514.119C231.378 514.027 231.454 513.945 231.542 513.876C231.716 513.729 231.919 513.62 232.139 513.558C232.358 513.495 232.588 513.48 232.814 513.513C234.217 513.934 235.448 514.793 236.326 515.966C234.464 516.056 231.542 515.345 231.209 514.452C231.194 514.467 231.133 514.331 231.315 514.119Z" fill="#212741"/>
<path d="M227.015 525.367L213.906 525.17L211.529 494.757L224.624 494.968L227.015 525.367Z" fill="#7F3E3B"/>
<path d="M213.345 523.641L227.606 523.868C227.729 523.866 227.852 523.888 227.966 523.934C228.081 523.979 228.185 524.046 228.274 524.132C228.363 524.218 228.433 524.32 228.482 524.433C228.531 524.546 228.558 524.668 228.56 524.791L229.059 536.478C229.055 537.087 228.812 537.67 228.381 538.101C227.95 538.532 227.367 538.775 226.758 538.779C221.626 538.598 220.037 538.189 213.572 538.083C206.003 537.962 200.129 538.28 191.258 538.083C185.884 538.007 185.385 532.573 187.716 532.028C195.088 530.514 206.533 527.607 210 524.458C210.979 523.789 212.168 523.499 213.345 523.641Z" fill="#263238"/>
<path opacity="0.2" d="M211.529 494.772L212.755 510.44L225.865 510.652L224.639 494.984L211.529 494.772Z" fill="black"/>
<path d="M224.896 362.673C224.139 303.633 227.924 257.597 220.173 234.632L173.91 233.89C173.91 233.89 190.168 325.947 194.755 365.519C199.509 406.65 207.335 503.461 207.335 503.461L228.454 503.749C228.454 503.749 233.525 408.74 224.896 362.673Z" fill="#212741"/>
<path d="M204.081 507.806L230.437 508.23L232.465 499.677L203.127 498.768L204.081 507.806Z" fill="#263238"/>
<path d="M212.589 524.065C212.645 524.044 212.693 524.007 212.728 523.958C212.763 523.91 212.783 523.852 212.785 523.792C212.799 523.73 212.791 523.665 212.764 523.607C212.737 523.55 212.691 523.503 212.634 523.474C212.059 523.187 206.927 520.613 205.337 521.552C205.184 521.638 205.054 521.76 204.959 521.908C204.864 522.055 204.807 522.224 204.792 522.399C204.753 522.676 204.78 522.957 204.872 523.221C204.965 523.484 205.119 523.722 205.322 523.913C206.715 525.17 210.439 524.549 212.543 524.065H212.589ZM205.731 522.051C206.715 521.688 209.5 522.717 211.529 523.656C208.653 524.216 206.518 524.155 205.746 523.444C205.611 523.319 205.509 523.162 205.451 522.987C205.392 522.812 205.379 522.626 205.413 522.445C205.411 522.376 205.428 522.309 205.463 522.25C205.498 522.191 205.549 522.143 205.61 522.112L205.731 522.051Z" fill="#212741"/>
<path d="M212.589 524.065C212.64 524.037 212.685 523.999 212.719 523.951C212.753 523.904 212.776 523.85 212.785 523.792C212.785 523.641 212.528 520.068 210.923 518.736C210.698 518.532 210.431 518.382 210.14 518.295C209.849 518.209 209.543 518.189 209.243 518.236C208.395 518.342 208.138 518.781 208.062 519.145C207.79 520.658 210.802 523.429 212.346 524.11C212.388 524.121 212.431 524.122 212.473 524.115C212.514 524.107 212.554 524.09 212.589 524.065ZM208.986 518.887C209.088 518.848 209.195 518.822 209.303 518.812C209.522 518.779 209.745 518.795 209.957 518.857C210.169 518.92 210.364 519.029 210.53 519.175C211.47 520.323 212.026 521.736 212.119 523.217C210.605 522.278 208.516 520.083 208.683 519.175C208.703 519.104 208.741 519.04 208.795 518.989C208.848 518.939 208.914 518.904 208.986 518.887Z" fill="#212741"/>
<path d="M213.542 116.143C205.897 125.695 185.808 138.85 180.495 161.8C174.712 138.941 182.523 114.417 182.523 114.417C178.254 114.099 169.398 113.705 163.176 115.446C161.193 116.018 159.402 117.119 157.996 118.631C156.591 120.143 155.624 122.009 155.198 124.03C150.227 149.016 147.712 174.428 147.69 199.904C147.569 247.969 143.617 322.359 143.617 322.359C143.617 322.359 192.303 325.205 230.694 321.072C230.861 284.331 223.216 221.961 225.199 205.657C227.757 184.69 233.586 143.755 236.477 126.724C236.924 124.358 236.487 121.909 235.248 119.844C234.009 117.779 232.054 116.241 229.756 115.522C225.305 114.396 220.682 114.124 216.131 114.72C215.114 114.835 214.184 115.346 213.542 116.143Z" fill="#212741"/>
<path opacity="0.7" d="M213.527 116.143C205.882 125.71 185.793 138.85 180.495 161.8C174.712 138.941 182.523 114.417 182.523 114.417C178.254 114.099 169.398 113.705 163.176 115.446C161.193 116.018 159.402 117.119 157.996 118.631C156.591 120.143 155.624 122.009 155.198 124.03C150.227 149.016 147.712 174.428 147.69 199.904C147.569 247.969 143.617 322.359 143.617 322.359C143.617 322.359 192.303 325.205 230.694 321.072C230.861 284.331 223.216 221.961 225.199 205.657C227.757 184.675 233.586 143.74 236.477 126.724C236.941 124.434 236.561 122.053 235.406 120.022C234.251 117.991 232.4 116.446 230.195 115.673C225.617 114.452 220.845 114.133 216.146 114.735C215.122 114.84 214.18 115.346 213.527 116.143Z" fill="white"/>
<path opacity="0.5" d="M177.967 317.909C175.666 271.161 179.117 173.321 179.677 164.571H180.495C179.935 173.306 176.483 271.085 178.784 317.818L177.967 317.909Z" fill="#212741"/>
<path d="M176.65 131.705C171.821 140.152 167.188 149.084 163.025 157.91C160.936 162.345 158.983 166.796 157.303 171.201C156.455 173.396 155.698 175.576 155.047 177.665C154.465 179.464 154.03 181.307 153.745 183.176V183.297C153.764 183.08 153.764 182.863 153.745 182.646C153.723 182.138 153.662 181.631 153.563 181.132C153.434 180.614 153.262 180.108 153.049 179.618C152.847 179.185 152.609 178.77 152.337 178.377C151.835 177.62 151.16 176.992 150.369 176.545C149.885 176.333 150.49 176.636 151.187 176.757C153.117 177.145 155.077 177.373 157.045 177.438C161.748 177.633 166.457 177.588 171.154 177.302C175.984 176.999 180.888 176.56 185.778 176.031C188.231 175.758 190.683 175.44 193.12 175.107L196.784 174.607L198.601 174.32L199.509 174.184L199.948 174.108H200.175H200.311H200.084L199.645 174.199L204.035 194.378L203.536 194.469H203.248H203.051H202.794H202.294L201.325 194.575L199.388 194.787L195.527 195.196L187.822 195.938C182.66 196.422 177.497 196.831 172.244 197.088C166.991 197.346 161.647 197.588 156.076 197.346C152.995 197.249 149.927 196.899 146.903 196.301C144.698 195.864 142.567 195.115 140.575 194.076C138.653 193.058 136.994 191.606 135.73 189.837C134.766 188.474 134.091 186.929 133.747 185.295C133.559 184.471 133.462 183.628 133.46 182.782C133.46 182.419 133.46 181.874 133.46 181.647V181.314C133.778 178.141 134.386 175.005 135.276 171.943C136.048 169.188 136.896 166.584 137.789 164.041C139.606 158.969 141.543 154.11 143.542 149.296C145.54 144.482 147.659 139.774 149.779 135.081C151.898 130.388 154.078 125.771 156.349 120.987L176.65 131.705Z" fill="#212741"/>
<g opacity="0.7">
<path d="M176.65 131.705C171.821 140.152 167.188 149.084 163.025 157.91C160.936 162.345 158.983 166.796 157.303 171.201C156.455 173.396 155.698 175.576 155.047 177.665C154.465 179.464 154.03 181.307 153.745 183.176V183.297C153.764 183.08 153.764 182.863 153.745 182.646C153.723 182.138 153.662 181.631 153.563 181.132C153.434 180.614 153.262 180.108 153.049 179.618C152.847 179.185 152.609 178.77 152.337 178.377C151.835 177.62 151.16 176.992 150.369 176.545C149.885 176.333 150.49 176.636 151.187 176.757C153.117 177.145 155.077 177.373 157.045 177.438C161.748 177.633 166.457 177.588 171.154 177.302C175.984 176.999 180.888 176.56 185.778 176.031C188.231 175.758 190.683 175.44 193.12 175.107L196.784 174.607L198.601 174.32L199.509 174.184L199.948 174.108H200.175H200.311H200.084L199.645 174.199L204.035 194.378L203.536 194.469H203.248H203.051H202.794H202.294L201.325 194.575L199.388 194.787L195.527 195.196L187.822 195.938C182.66 196.422 177.497 196.831 172.244 197.088C166.991 197.346 161.647 197.588 156.076 197.346C152.995 197.249 149.927 196.899 146.903 196.301C144.698 195.864 142.567 195.115 140.575 194.076C138.653 193.058 136.994 191.606 135.73 189.837C134.766 188.474 134.091 186.929 133.747 185.295C133.559 184.471 133.462 183.628 133.46 182.782C133.46 182.419 133.46 181.874 133.46 181.647V181.314C133.778 178.141 134.386 175.005 135.276 171.943C136.048 169.188 136.896 166.584 137.789 164.041C139.606 158.969 141.543 154.11 143.542 149.296C145.54 144.482 147.659 139.774 149.779 135.081C151.898 130.388 154.078 125.771 156.349 120.987L176.65 131.705Z" fill="white"/>
</g>
<path d="M163.01 176.121L153.124 166.675L146.403 180.723C146.403 180.723 156.304 188.293 160.785 183.751L163.01 176.121Z" fill="#7F3E3B"/>
<path d="M199.161 180.935L208.244 170.687L216.085 184.16C216.085 184.16 206.851 192.486 202.037 188.399L199.161 180.935Z" fill="#7F3E3B"/>
<path d="M221.868 169.46L223.806 174.713C224.175 175.761 224.178 176.903 223.815 177.953C223.452 179.003 222.745 179.9 221.808 180.496L216.116 184.16L208.274 170.687L215.934 167.114C216.473 166.845 217.062 166.692 217.664 166.666C218.265 166.639 218.865 166.74 219.425 166.962C219.985 167.183 220.492 167.52 220.913 167.951C221.334 168.381 221.66 168.896 221.868 169.46Z" fill="#7F3E3B"/>
<path d="M139.454 166.524L137.94 171.898C137.664 172.972 137.758 174.109 138.209 175.123C138.66 176.137 139.44 176.969 140.423 177.484L146.479 180.678L153.2 166.629L145.252 163.693C144.689 163.456 144.082 163.342 143.471 163.359C142.86 163.376 142.26 163.523 141.71 163.791C141.161 164.06 140.676 164.442 140.287 164.913C139.898 165.385 139.614 165.934 139.454 166.524Z" fill="#7F3E3B"/>
<path d="M236.492 124.529C237.037 127.466 237.461 130.085 237.9 132.855C238.339 135.626 238.717 138.336 239.051 141.091C239.762 146.601 240.352 152.142 240.64 157.849C241.014 163.804 240.888 169.779 240.262 175.713C239.869 179.353 238.967 182.92 237.582 186.31C237.149 187.353 236.643 188.365 236.068 189.337C235.705 189.882 235.387 190.397 234.948 190.957L234.63 191.366C234.506 191.542 234.369 191.709 234.221 191.865C233.803 192.349 233.353 192.804 232.874 193.228C231.522 194.385 229.987 195.311 228.332 195.968C227.24 196.412 226.117 196.776 224.972 197.058C221.673 197.783 218.311 198.178 214.935 198.239C211.907 198.329 209.046 198.239 206.215 198.148C200.553 197.921 195.073 197.376 189.563 196.831C184.052 196.286 178.724 195.589 173.349 194.833C167.975 194.076 162.677 193.319 157.197 192.456L160.936 172.14C165.916 173.169 171.139 174.047 176.271 174.88C181.403 175.713 186.58 176.394 191.712 176.954C196.844 177.514 201.961 177.923 206.942 178.135C209.409 178.21 211.862 178.241 214.163 178.135C216.108 178.101 218.044 177.878 219.946 177.469C220.188 177.469 220.445 177.302 220.37 177.302C219.982 177.484 219.625 177.724 219.31 178.014C219.074 178.211 218.857 178.429 218.659 178.665C218.523 178.846 218.659 178.755 218.553 178.786C218.553 178.786 218.659 178.559 218.75 178.301C219.28 176.703 219.611 175.046 219.734 173.366C220.092 168.701 220.016 164.014 219.507 159.363C219.037 154.443 218.311 149.432 217.418 144.421C216.948 141.923 216.434 139.426 215.904 136.928C215.374 134.43 214.753 131.871 214.148 129.616L236.492 124.529Z" fill="#212741"/>
<g opacity="0.7">
<path d="M236.492 124.529C237.037 127.466 237.461 130.085 237.9 132.855C238.339 135.626 238.717 138.336 239.051 141.091C239.762 146.601 240.352 152.142 240.64 157.849C241.014 163.804 240.888 169.779 240.262 175.713C239.869 179.353 238.967 182.92 237.582 186.31C237.149 187.353 236.643 188.365 236.068 189.337C235.705 189.882 235.387 190.397 234.948 190.957L234.63 191.366C234.506 191.542 234.369 191.709 234.221 191.865C233.803 192.349 233.353 192.804 232.874 193.228C231.522 194.385 229.987 195.311 228.332 195.968C227.24 196.412 226.117 196.776 224.972 197.058C221.673 197.783 218.311 198.178 214.935 198.239C211.907 198.329 209.046 198.239 206.215 198.148C200.553 197.921 195.073 197.376 189.563 196.831C184.052 196.286 178.724 195.589 173.349 194.833C167.975 194.076 162.677 193.319 157.197 192.456L160.936 172.14C165.916 173.169 171.139 174.047 176.271 174.88C181.403 175.713 186.58 176.394 191.712 176.954C196.844 177.514 201.961 177.923 206.942 178.135C209.409 178.21 211.862 178.241 214.163 178.135C216.108 178.101 218.044 177.878 219.946 177.469C220.188 177.469 220.445 177.302 220.37 177.302C219.982 177.484 219.625 177.724 219.31 178.014C219.074 178.211 218.857 178.429 218.659 178.665C218.523 178.846 218.659 178.755 218.553 178.786C218.553 178.786 218.659 178.559 218.75 178.301C219.28 176.703 219.611 175.046 219.734 173.366C220.092 168.701 220.016 164.014 219.507 159.363C219.037 154.443 218.311 149.432 217.418 144.421C216.948 141.923 216.434 139.426 215.904 136.928C215.374 134.43 214.753 131.871 214.148 129.616L236.492 124.529Z" fill="white"/>
</g>
<path d="M202.279 232.603L224.987 249.149C224.987 249.149 227.56 271.373 214.799 273.553C202.037 275.733 199.524 248.62 202.279 232.603Z" fill="#212741"/>
<path opacity="0.5" d="M202.279 232.603L224.987 249.149C224.987 249.149 227.56 271.373 214.799 273.553C202.037 275.733 199.524 248.62 202.279 232.603Z" fill="white"/>
<path d="M153.14 232.603L144.829 249.149C144.829 249.149 142.179 271.373 145.903 273.553C149.627 275.733 152.64 248.62 153.14 232.603Z" fill="#212741"/>
<path opacity="0.5" d="M153.14 232.603L144.829 249.149C144.829 249.149 142.179 271.373 145.903 273.553C149.627 275.733 152.64 248.62 153.14 232.603Z" fill="white"/>
<path d="M185.536 74.8902C185.261 74.8899 184.987 74.8595 184.719 74.7993C184.19 74.6682 183.695 74.4263 183.267 74.0896C182.839 73.7529 182.488 73.3292 182.236 72.8465C181.667 71.5803 181.355 70.2135 181.318 68.8258C181.282 67.438 181.522 66.0568 182.024 64.7625C183.538 59.9333 187.307 56.5726 190.335 57.1933C190.862 57.3271 191.356 57.57 191.783 57.9064C192.211 58.2428 192.563 58.6651 192.818 59.1461C193.387 60.4123 193.699 61.779 193.735 63.1668C193.771 64.5546 193.532 65.9358 193.03 67.2301C191.591 71.7111 188.382 74.8902 185.536 74.8902ZM189.502 57.5263C186.823 57.5263 183.75 60.554 182.387 64.8382C181.389 67.36 181.432 70.1751 182.508 72.6648C182.735 73.1016 183.052 73.4854 183.439 73.7907C183.825 74.096 184.271 74.3159 184.749 74.436C187.595 75.1021 191.107 71.8473 192.606 67.2149C193.564 64.696 193.494 61.901 192.409 59.4338C192.187 58.9962 191.873 58.6116 191.489 58.3059C191.105 58.0003 190.66 57.7809 190.184 57.6625C189.962 57.5911 189.734 57.5454 189.502 57.5263Z" fill="white"/>
<path d="M201.659 78.372C201.277 78.3692 200.897 78.3286 200.523 78.2509C199.603 78.0017 198.754 77.5386 198.046 76.8994C197.339 76.2601 196.792 75.4628 196.451 74.5723C195.58 72.4563 195.405 70.1182 195.951 67.8962C197.056 63.0216 200.917 59.7365 204.55 60.554C205.47 60.8032 206.319 61.2663 207.027 61.9055C207.734 62.5448 208.281 63.3421 208.622 64.2327C209.486 66.345 209.661 68.6761 209.122 70.8936C208.123 75.2686 204.913 78.372 201.659 78.372ZM203.415 60.8114C200.387 60.8114 197.284 63.8391 196.33 67.987C195.805 70.1275 195.969 72.3793 196.799 74.4209C197.114 75.2585 197.625 76.0088 198.288 76.6091C198.952 77.2095 199.749 77.6427 200.614 77.8725C204.02 78.6597 207.669 75.4806 208.743 70.8179C209.269 68.6774 209.104 66.4257 208.274 64.384C207.957 63.5477 207.446 62.7986 206.783 62.1986C206.119 61.5985 205.323 61.1645 204.459 60.9325C204.116 60.8549 203.766 60.8143 203.415 60.8114Z" fill="white"/>
<path d="M195.876 70.1821C195.781 70.1864 195.689 70.1538 195.618 70.0913C195.197 69.6838 194.691 69.3747 194.136 69.1862C193.581 68.9977 192.991 68.9346 192.409 69.0013C192.308 69.0214 192.204 69.0007 192.119 68.944C192.034 68.8872 191.975 68.7989 191.955 68.6985C191.935 68.5981 191.955 68.4939 192.012 68.4087C192.069 68.3236 192.157 68.2644 192.257 68.2444C192.955 68.1534 193.664 68.2205 194.332 68.4406C195.001 68.6607 195.611 69.0282 196.118 69.516C196.154 69.5513 196.184 69.5936 196.203 69.6404C196.223 69.6873 196.234 69.7376 196.234 69.7885C196.234 69.8394 196.223 69.8897 196.203 69.9365C196.184 69.9834 196.154 70.0257 196.118 70.061C196.053 70.1277 195.968 70.1704 195.876 70.1821Z" fill="white"/>
<path d="M200.114 168.037L199.282 166.175C212.18 160.483 220.657 148.978 219.34 142.877C218.644 139.653 215.253 138.971 212.483 139.017C199.176 139.138 194.725 152.308 191.137 162.905C190.683 164.268 190.229 165.57 189.79 166.781L187.882 166.085C188.306 164.889 188.745 163.602 189.215 162.254C192.802 151.657 197.722 137.109 212.467 136.988H212.634C219.174 136.988 220.9 140.394 221.339 142.438C222.837 149.372 214.087 161.8 200.114 168.037Z" fill="#263238"/>
<path d="M196.92 165.782C195.891 168.022 196.315 170.399 197.844 171.095C199.373 171.792 201.462 170.55 202.476 168.31C203.49 166.069 203.082 163.693 201.553 162.996C200.024 162.3 197.934 163.496 196.92 165.782Z" fill="#263238"/>
<path d="M185.4 165.782C184.37 168.022 184.794 170.399 186.323 171.095C187.852 171.792 189.941 170.55 190.956 168.31C191.97 166.069 191.576 163.693 190.032 162.996C188.488 162.3 186.429 163.496 185.4 165.782Z" fill="#263238"/>
<path d="M166.24 143.589C166.506 140.759 164.481 138.254 161.717 137.994C158.954 137.735 156.498 139.818 156.232 142.649C155.966 145.479 157.99 147.984 160.754 148.243C163.518 148.503 165.974 146.419 166.24 143.589Z" fill="#263238"/>
<path d="M213.466 139.002C213.346 139.023 213.223 139.023 213.103 139.002C212.977 138.955 212.862 138.883 212.764 138.791C212.666 138.699 212.588 138.589 212.533 138.467C212.478 138.344 212.448 138.212 212.444 138.078C212.441 137.943 212.464 137.81 212.513 137.685C212.513 137.609 215.737 128.874 210.666 115.779C210.617 115.655 210.593 115.522 210.596 115.389C210.598 115.256 210.627 115.124 210.681 115.002C210.734 114.879 210.811 114.769 210.907 114.676C211.003 114.584 211.117 114.511 211.241 114.462C211.365 114.414 211.498 114.39 211.631 114.392C211.765 114.395 211.896 114.424 212.019 114.477C212.141 114.53 212.252 114.607 212.344 114.704C212.437 114.8 212.509 114.913 212.558 115.037C217.947 128.919 214.556 138.033 214.405 138.411C214.324 138.591 214.192 138.744 214.025 138.849C213.858 138.954 213.664 139.007 213.466 139.002Z" fill="#263238"/>
<path d="M159.271 142.59H159.059C158.797 142.528 158.569 142.368 158.422 142.142C158.275 141.916 158.222 141.643 158.272 141.378C158.468 140.425 163.388 117.883 182.296 113.433C182.559 113.373 182.836 113.419 183.064 113.563C183.293 113.706 183.455 113.934 183.515 114.197C183.575 114.46 183.529 114.736 183.385 114.965C183.242 115.193 183.014 115.356 182.751 115.416C165.114 119.579 160.315 141.575 160.27 141.787C160.219 142.014 160.092 142.217 159.91 142.363C159.729 142.508 159.503 142.588 159.271 142.59Z" fill="#263238"/>
<path d="M334.469 532.588L320.556 532.361L319.133 500.04L333.061 500.252L334.469 532.588Z" fill="#FF8B7B"/>
<path d="M320.45 530.756L335.589 530.983C335.857 530.979 336.116 531.079 336.311 531.263C336.506 531.447 336.622 531.699 336.633 531.967L337.542 544.396C337.552 544.713 337.498 545.03 337.383 545.326C337.268 545.623 337.094 545.893 336.872 546.12C336.65 546.348 336.385 546.528 336.091 546.651C335.798 546.773 335.483 546.835 335.165 546.833C329.7 546.651 321.843 546.212 314.955 546.106C306.901 545.97 307.673 546.303 298.227 546.106C292.52 546.015 291.793 540.202 294.261 539.718C305.509 537.508 306.629 537.386 316.968 531.725C318.025 531.104 319.225 530.77 320.45 530.756Z" fill="#263238"/>
<path opacity="0.2" d="M319.148 500.04L319.875 516.707L333.802 516.919L333.076 500.267L319.148 500.04Z" fill="black"/>
<path d="M369.333 99.2783C351.469 95.3423 333.333 94.9638 314.925 96.6442C311.867 96.9268 308.978 98.1725 306.674 100.202C304.37 102.232 302.769 104.94 302.102 107.938C298.409 125.014 292.278 163.526 295.184 222.188L369.696 223.399C370.907 212.923 368.182 164.359 379.4 115.431C379.816 113.709 379.885 111.921 379.603 110.171C379.32 108.422 378.692 106.747 377.755 105.243C376.818 103.739 375.59 102.437 374.144 101.413C372.698 100.389 371.062 99.6631 369.333 99.2783Z" fill="#212741"/>
<path d="M324.81 109.769L326.93 115.34C327.037 115.613 327.213 115.852 327.442 116.036C327.67 116.219 327.942 116.339 328.231 116.385L331.062 116.809C331.585 116.905 332.125 116.802 332.576 116.521L337.86 113.357L332.228 108.316L324.81 109.769Z" fill="#263238"/>
<path d="M331.32 115.128C330.277 114.696 329.139 114.545 328.019 114.689C324.855 120.412 319.935 137.125 318.634 144.573C323.629 159.832 325.734 161.498 325.734 161.498L331.789 143.997C331.789 143.997 330.336 125.544 331.32 115.128Z" fill="#263238"/>
<path d="M357.267 62.0679C354.557 72.0896 351.212 90.5737 357.888 97.8856C351.984 102.957 344.263 108.77 332.152 108.301C320.042 107.832 322.736 99.6719 326.233 95.524C337.769 93.6619 338.071 85.2298 336.648 77.1912L357.267 62.0679Z" fill="#FF8B7B"/>
<path d="M361.143 97.3103C360.323 96.85 359.461 96.4698 358.569 96.1749C358.355 96.0973 358.122 96.0907 357.903 96.1561C357.685 96.2216 357.494 96.3556 357.358 96.5382C355.996 98.4003 351.575 106.832 332.274 108.316C335.195 110.466 338.768 116.612 340.297 119.534C346.277 117.157 361.96 109.815 361.688 98.2489C361.685 98.0588 361.634 97.8725 361.538 97.7081C361.443 97.5436 361.307 97.4066 361.143 97.3103Z" fill="white"/>
<path d="M326.324 96.0235C326.396 95.8458 326.421 95.6523 326.396 95.4621C326.37 95.2719 326.296 95.0916 326.18 94.9388C326.064 94.7861 325.91 94.6662 325.734 94.5909C325.557 94.5157 325.364 94.4877 325.173 94.5097C324.506 94.574 323.844 94.6802 323.19 94.8276C323.039 94.8683 322.895 94.9348 322.766 95.0244C321.253 96.2203 312.169 106.863 318.588 116.854C320.496 114.523 326.369 109.285 332.213 108.24C327.096 105.364 324.916 100.626 326.324 96.0235Z" fill="white"/>
<path opacity="0.2" d="M348.88 68.2444L336.77 77.1912C337.13 79.0626 337.323 80.9625 337.345 82.8681C341.72 82.5654 347.942 78.3266 348.79 73.785C349.164 71.9598 349.195 70.0808 348.88 68.2444Z" fill="black"/>
<path d="M332.485 56.0125C325.401 58.3135 324.311 52.7274 325.764 47.2321C326.657 43.8108 325.416 41.6309 324.931 37.8765C324.099 31.7152 325.643 26.2653 337.133 22.2688C352.029 17.0762 348.744 25.8263 349.335 29.4444C349.925 33.0625 343.733 35.2424 344.036 38.9665C344.282 42.688 343.28 46.3852 341.188 49.4727C339.095 52.5602 336.033 54.8616 332.485 56.0125Z" fill="#263238"/>
<path d="M366.744 49.3364C362.702 62.6734 361.006 70.6817 352.574 76.1618C339.949 84.4123 324.81 74.6631 324.81 60.554C324.81 47.7923 331.426 28.1122 345.822 25.5538C348.963 24.9607 352.204 25.1956 355.227 26.2354C358.249 27.2752 360.949 29.084 363.06 31.4838C365.171 33.8836 366.621 36.7918 367.267 39.9221C367.913 43.0524 367.732 46.2969 366.744 49.3364Z" fill="#FF8B7B"/>
<path d="M362.657 35.5452C355.466 34.2736 346.958 37.3315 339.782 35.5452C334.09 34.0314 334.151 30.2921 334.983 26.4621C336.21 20.8154 340.902 18.9685 343.718 17.924C346.534 16.8794 347.987 20.3916 351.878 17.712C354.497 15.8954 364.488 15.4413 370.407 17.712C376.327 19.9828 369.56 24.267 372.724 26.2501C382.503 32.3056 376.281 37.9522 362.657 35.5452Z" fill="#263238"/>
<path opacity="0.3" d="M340.161 34.0011C337.617 28.203 340.297 20.4521 350.985 19.7103C341.614 22.5261 340.161 34.0011 340.161 34.0011Z" fill="white"/>
<path d="M360.643 62.84C354.588 61.8862 354.936 55.0436 357.888 50.3053C360.704 45.7637 356.556 40.8589 356.253 37.4224C355.95 33.986 359.159 30.489 365.336 30.7766C371.512 31.0643 381.322 34.9851 381.489 39.5115C381.655 44.0379 375.327 43.4778 376.311 47.8528C378.476 57.602 369.469 64.2478 360.643 62.84Z" fill="#263238"/>
<path opacity="0.3" d="M373.253 39.2087C370.695 43.7503 365.381 44.7343 358.493 39.2087C360.82 40.2271 363.333 40.7528 365.873 40.7528C368.413 40.7528 370.926 40.2271 373.253 39.2087Z" fill="white"/>
<path d="M327.505 60.1453C324.734 63.067 324.977 68.9407 325.128 71.7565C325.279 74.5723 327.671 79.2046 336.527 80.5368C345.383 81.869 347.457 78.7354 347.881 75.7682C348.305 72.8011 347.881 64.3689 345.02 61.5532C342.159 58.7374 330.638 56.8299 327.505 60.1453Z" fill="#263238"/>
<path d="M333.273 64.4143C334.497 64.751 335.776 64.8387 337.034 64.6723C338.293 64.5059 339.505 64.0887 340.6 63.4455C340.655 63.3912 340.691 63.3192 340.699 63.2418C340.707 63.1644 340.688 63.0866 340.645 63.0218C340.602 62.9571 340.537 62.9095 340.462 62.8873C340.388 62.8651 340.308 62.8698 340.236 62.9005C339.015 63.5938 337.649 63.9943 336.246 64.0704C334.843 64.1466 333.442 63.8964 332.152 63.3395C332.072 63.3036 331.981 63.301 331.899 63.3322C331.816 63.3634 331.75 63.4259 331.713 63.506C331.678 63.5863 331.675 63.6776 331.706 63.7599C331.737 63.8421 331.8 63.9087 331.88 63.945C332.334 64.1307 332.799 64.2875 333.273 64.4143Z" fill="#FF8B7B"/>
<path d="M367.97 65.0956C365.543 67.6283 362.226 69.1161 358.72 69.2435C354.179 69.3798 353.028 64.9896 355.329 61.2201C357.418 57.8291 362.323 53.6509 366.456 55.3615C370.589 57.0722 370.937 61.8862 367.97 65.0956Z" fill="#FF8B7B"/>
<path d="M333.696 360.539C335.513 290.447 353.376 223.142 353.376 223.142L295.29 222.203C295.29 222.203 298.53 323.419 299.408 365.822C300.331 409.905 314.107 513.407 314.107 513.407L337.693 513.77C337.693 513.77 335.074 415.84 333.696 360.539Z" fill="#263238"/>
<path opacity="0.2" d="M339.358 261.699C322.025 284.407 328.035 327.037 333.787 357.178C335.044 319.71 340.706 283.332 345.626 257.945L339.358 261.699Z" fill="black"/>
<path d="M312.578 513.907L340.6 514.346L340.418 505.263L311.261 504.294L312.578 513.907Z" fill="#263238"/>
<path d="M346.14 48.0799C345.868 49.185 345.081 49.9571 344.369 49.8057C343.658 49.6543 343.279 48.64 343.552 47.5349C343.824 46.4298 344.596 45.6577 345.308 45.8091C346.019 45.9605 346.398 46.9294 346.14 48.0799Z" fill="#263238"/>
<path d="M333.485 45.7486C333.227 46.8537 332.44 47.6106 331.713 47.4592C330.987 47.3078 330.639 46.2935 330.896 45.1884C331.153 44.0833 331.956 43.3264 332.667 43.4778C333.379 43.6292 333.742 44.6435 333.485 45.7486Z" fill="#263238"/>
<path d="M336.921 47.4895C334.727 50.2104 332.182 52.6284 329.352 54.6803C330.866 56.5877 334.317 56.4515 334.317 56.4515L336.921 47.4895Z" fill="#FF5652"/>
<path d="M351.53 43.6746C351.639 43.7021 351.753 43.7021 351.863 43.6746C352.023 43.6019 352.148 43.4687 352.21 43.3042C352.273 43.1397 352.267 42.9572 352.196 42.7965C351.805 41.8429 351.187 40.9995 350.395 40.3397C349.604 39.68 348.663 39.2242 347.654 39.0119C347.48 38.9859 347.302 39.0303 347.16 39.1353C347.018 39.2403 346.923 39.3974 346.897 39.572C346.882 39.6557 346.884 39.7415 346.902 39.8244C346.921 39.9073 346.956 39.9857 347.006 40.0548C347.055 40.124 347.118 40.1825 347.19 40.227C347.262 40.2715 347.343 40.301 347.427 40.3138C348.228 40.4898 348.974 40.8571 349.601 41.3844C350.229 41.9117 350.719 42.5833 351.03 43.3415C351.08 43.4331 351.152 43.5111 351.239 43.5691C351.326 43.6271 351.426 43.6632 351.53 43.6746Z" fill="#263238"/>
<path d="M329.927 39.7234C330.035 39.7431 330.146 39.7369 330.252 39.7053C330.357 39.6737 330.453 39.6177 330.532 39.5418C331.102 38.9233 331.812 38.4507 332.602 38.1636C333.393 37.8764 334.24 37.7832 335.074 37.8917C335.248 37.9192 335.426 37.8799 335.572 37.7816C335.718 37.6833 335.821 37.5333 335.861 37.3618C335.897 37.1932 335.865 37.0172 335.771 36.8725C335.677 36.7278 335.53 36.6261 335.362 36.5898C334.317 36.4521 333.254 36.5627 332.26 36.9125C331.266 37.2623 330.368 37.8415 329.639 38.6032C329.515 38.728 329.446 38.8967 329.446 39.0725C329.446 39.2483 329.515 39.417 329.639 39.5418C329.719 39.6242 329.818 39.6865 329.927 39.7234Z" fill="#263238"/>
<path d="M317.892 531.997C317.951 531.976 318.003 531.94 318.043 531.892C318.083 531.844 318.109 531.786 318.119 531.725C318.133 531.66 318.126 531.593 318.099 531.533C318.072 531.473 318.026 531.423 317.967 531.392C317.347 531.059 311.912 528.122 310.156 529.045C309.99 529.123 309.847 529.244 309.743 529.396C309.639 529.548 309.578 529.725 309.566 529.908C309.512 530.201 309.532 530.502 309.625 530.785C309.717 531.068 309.879 531.323 310.095 531.528C311.609 532.906 315.576 532.421 317.846 531.997H317.892ZM310.565 529.575C311.64 529.227 314.607 530.423 316.772 531.513C313.668 531.982 311.382 531.816 310.565 531.044C310.42 530.909 310.313 530.739 310.252 530.551C310.191 530.363 310.179 530.163 310.217 529.969C310.22 529.896 310.243 529.825 310.283 529.764C310.322 529.702 310.378 529.653 310.444 529.621L310.565 529.575Z" fill="#212741"/>
<path d="M317.892 531.997C317.944 531.968 317.987 531.923 318.014 531.869C318.041 531.815 318.051 531.754 318.043 531.694C318.043 531.543 317.862 527.774 316.166 526.29C315.921 526.075 315.636 525.912 315.326 525.81C315.016 525.709 314.689 525.671 314.365 525.7C313.441 525.7 313.169 526.229 313.078 526.608C312.745 528.122 315.924 531.24 317.619 532.028C317.711 532.047 317.807 532.036 317.892 531.997ZM314.122 526.381C314.238 526.361 314.355 526.361 314.471 526.381C314.709 526.354 314.95 526.379 315.178 526.455C315.405 526.531 315.613 526.655 315.788 526.82C316.772 528.05 317.339 529.561 317.407 531.134C315.742 530.09 313.608 527.683 313.804 526.744C313.82 526.623 313.85 526.472 314.122 526.381Z" fill="#212741"/>
<path d="M396.234 532.588L382.306 532.361L378.794 500.04L392.737 500.252L396.234 532.588Z" fill="#FF8B7B"/>
<path d="M381.64 530.756L396.779 530.983C397.046 530.979 397.305 531.079 397.501 531.263C397.696 531.447 397.811 531.699 397.823 531.967L398.731 544.396C398.742 544.713 398.688 545.03 398.572 545.326C398.457 545.623 398.284 545.893 398.062 546.12C397.84 546.348 397.574 546.528 397.281 546.651C396.988 546.773 396.673 546.835 396.355 546.833C390.89 546.651 389.194 546.212 382.306 546.106C374.252 545.97 377.961 546.303 368.515 546.106C362.808 546.015 362.096 540.233 364.549 539.718C372.345 538.098 374.48 535.01 378.082 531.725C379.101 530.96 380.374 530.613 381.64 530.756Z" fill="#263238"/>
<path opacity="0.2" d="M378.809 500.04L380.611 516.707L394.553 516.919L392.752 500.267L378.809 500.04Z" fill="black"/>
<path d="M382.336 358.782C376.553 296.139 378.718 247.802 369.696 223.399L320.465 222.612C320.465 222.612 342.356 321.648 350.561 363.4C359.069 406.787 374.555 509.305 374.555 509.305L397.021 509.623C397.021 509.623 395.446 407.226 382.336 358.782Z" fill="#263238"/>
<path d="M371.301 513.907L399.337 514.346L401.229 505.263L369.984 504.294L371.301 513.907Z" fill="#263238"/>
<path d="M384.365 531.8C384.429 531.804 384.493 531.788 384.549 531.755C384.605 531.723 384.65 531.674 384.679 531.617C384.708 531.559 384.719 531.494 384.712 531.43C384.704 531.366 384.678 531.305 384.637 531.255C384.183 530.726 380.096 526.063 378.203 526.335C378.02 526.362 377.847 526.434 377.698 526.545C377.55 526.656 377.432 526.803 377.356 526.971C377.218 527.235 377.146 527.529 377.146 527.827C377.146 528.124 377.218 528.418 377.356 528.682C378.234 530.499 382.14 531.422 384.38 531.8H384.365ZM378.4 526.986C379.521 526.986 381.867 529.197 383.487 530.968C380.459 530.347 378.385 529.454 377.901 528.379C377.804 528.206 377.753 528.01 377.753 527.811C377.753 527.613 377.804 527.417 377.901 527.244C377.928 527.177 377.974 527.118 378.033 527.076C378.092 527.033 378.161 527.007 378.234 527.001L378.4 526.986Z" fill="#212741"/>
<path d="M384.365 531.8H384.456C384.514 531.786 384.568 531.756 384.611 531.713C384.653 531.67 384.683 531.617 384.698 531.558C384.698 531.407 385.864 527.774 384.804 525.775C384.65 525.482 384.435 525.225 384.174 525.022C383.913 524.818 383.612 524.673 383.29 524.595C382.412 524.352 382.003 524.685 381.776 525.018C380.929 526.396 382.821 530.408 384.077 531.71C384.113 531.749 384.159 531.777 384.209 531.793C384.26 531.809 384.313 531.812 384.365 531.8ZM382.851 525.17H383.184C383.416 525.231 383.631 525.341 383.817 525.493C384.002 525.644 384.153 525.833 384.259 526.048C384.744 527.564 384.744 529.194 384.259 530.71C383.078 529.197 381.928 526.169 382.427 525.291C382.427 525.306 382.518 525.17 382.806 525.17H382.851Z" fill="#212741"/>
<path d="M268.571 228.864L260.487 240.702L276.488 245.592C276.488 245.592 282.543 234.026 277.033 230.014L268.571 228.864Z" fill="#FF8B7B"/>
<path d="M262.924 255.084L268.858 255.841C270.021 255.975 271.194 255.703 272.179 255.071C273.164 254.44 273.9 253.487 274.263 252.374L276.488 245.592L260.487 240.702L258.973 249.513C258.851 250.139 258.858 250.784 258.993 251.408C259.128 252.032 259.388 252.622 259.757 253.143C260.126 253.664 260.598 254.104 261.142 254.438C261.686 254.771 262.292 254.991 262.924 255.084Z" fill="#FF8B7B"/>
<path d="M321.086 113.069C318.058 123.364 315.091 133.693 312.185 144.058C309.278 154.382 306.538 164.813 303.904 175.062C303.389 177.272 302.39 181.117 301.467 183.6C300.543 186.082 299.65 188.944 298.727 191.547C296.849 196.725 294.942 201.811 293.004 206.883L281.544 237.296L261.228 229.106C265.437 219.311 269.388 209.32 273.233 199.374C275.095 194.378 276.927 189.368 278.668 184.417C279.531 181.935 280.379 179.467 281.12 177.075C281.862 174.683 282.256 173.094 282.922 170.051C285.329 159.378 287.933 148.963 290.355 138.426C292.777 127.89 295.275 117.445 297.637 106.923L321.086 113.069Z" fill="#212741"/>
<g opacity="0.6">
<path d="M321.086 113.069C318.058 123.364 315.091 133.693 312.185 144.058C309.278 154.382 306.538 164.813 303.904 175.062C303.389 177.272 302.39 181.117 301.467 183.6C300.543 186.082 299.65 188.944 298.727 191.547C296.849 196.725 294.942 201.811 293.004 206.883L281.544 237.296L261.228 229.106C265.437 219.311 269.388 209.32 273.233 199.374C275.095 194.378 276.927 189.368 278.668 184.417C279.531 181.935 280.379 179.467 281.12 177.075C281.862 174.683 282.256 173.094 282.922 170.051C285.329 159.378 287.933 148.963 290.355 138.426C292.777 127.89 295.275 117.445 297.637 106.923L321.086 113.069Z" fill="white"/>
</g>
<path d="M332.773 252.889L247.891 246.985C246.641 246.886 245.472 246.324 244.615 245.408C243.758 244.492 243.274 243.289 243.259 242.034V183.766C243.251 183.17 243.367 182.578 243.601 182.03C243.835 181.481 244.182 180.988 244.618 180.581C245.055 180.175 245.571 179.864 246.135 179.67C246.699 179.475 247.297 179.401 247.891 179.452L332.773 185.341C334.024 185.446 335.191 186.012 336.047 186.93C336.903 187.848 337.387 189.051 337.405 190.306V248.574C337.414 249.171 337.297 249.762 337.063 250.311C336.829 250.859 336.483 251.353 336.046 251.759C335.61 252.166 335.093 252.476 334.529 252.671C333.966 252.865 333.367 252.939 332.773 252.889Z" fill="#263238"/>
<path d="M334.241 252.026L249.36 246.122C248.109 246.024 246.94 245.461 246.083 244.545C245.226 243.629 244.742 242.426 244.727 241.171V182.903C244.719 182.307 244.835 181.716 245.07 181.167C245.304 180.618 245.65 180.125 246.086 179.718C246.523 179.312 247.04 179.001 247.603 178.807C248.167 178.612 248.766 178.538 249.36 178.589L334.241 184.478C335.491 184.579 336.658 185.143 337.514 186.058C338.371 186.973 338.855 188.175 338.874 189.428V247.711C338.882 248.308 338.766 248.899 338.532 249.448C338.298 249.996 337.951 250.49 337.515 250.896C337.078 251.303 336.562 251.613 335.998 251.808C335.434 252.002 334.836 252.077 334.241 252.026Z" fill="#212741"/>
<path d="M361.763 94.5702C354.8 104.849 330.351 120.487 325.234 145.95C318.346 121.638 324.977 93.9495 324.977 93.9495C318.321 93.8966 311.693 94.8042 305.297 96.6442C303.215 97.2399 301.342 98.4064 299.889 100.012C298.436 101.617 297.462 103.597 297.076 105.727C292.585 132.376 290.724 159.402 291.521 186.416C292.929 237.538 291.112 316.607 291.112 316.607C291.112 316.607 342.976 319.634 383.669 315.244C382.685 276.187 372.557 209.835 374.147 192.501C376.19 170.202 381.095 126.679 383.623 108.573C384 106.008 383.442 103.393 382.053 101.204C380.664 99.0143 378.535 97.3964 376.054 96.6442C371.404 95.322 366.598 94.6246 361.763 94.5702Z" fill="#212741"/>
<path opacity="0.7" d="M361.763 94.5702C354.8 104.849 330.351 120.487 325.234 145.95C318.346 121.638 324.977 93.9495 324.977 93.9495C318.321 93.8966 311.693 94.8042 305.297 96.6442C303.215 97.2399 301.342 98.4064 299.889 100.012C298.436 101.617 297.462 103.597 297.076 105.727C292.585 132.376 290.724 159.402 291.521 186.416C292.929 237.538 291.112 316.607 291.112 316.607C291.112 316.607 342.976 319.634 383.669 315.244C382.685 276.187 372.557 209.835 374.147 192.501C376.19 170.202 381.095 126.664 383.623 108.558C384.03 106.084 383.545 103.545 382.256 101.395C380.967 99.2436 378.957 97.6194 376.584 96.8107C371.773 95.3745 366.784 94.6203 361.763 94.5702Z" fill="white"/>
<path d="M365.972 218.918L357.282 230.317L373.011 236.04C373.011 236.04 379.642 224.807 374.358 220.507L365.972 218.918Z" fill="#FF8B7B"/>
<path d="M358.962 244.805L364.836 245.88C365.991 246.074 367.177 245.863 368.195 245.284C369.213 244.705 369.999 243.792 370.422 242.7L373.011 236.04L357.282 230.317L355.238 239.037C355.081 239.661 355.054 240.312 355.158 240.947C355.263 241.582 355.497 242.19 355.846 242.731C356.196 243.272 356.652 243.735 357.189 244.092C357.725 244.449 358.329 244.691 358.962 244.805Z" fill="#FF8B7B"/>
<path d="M382.654 103.472C384.925 108.452 387.044 113.191 389.103 118.111C391.162 123.031 393.221 127.89 395.159 132.901C397.096 137.912 398.837 143.013 400.503 148.357C401.305 151.052 402.016 153.807 402.667 156.789C402.97 158.303 403.243 159.817 403.455 161.482C403.7 163.344 403.796 165.222 403.742 167.099C403.742 167.735 403.651 168.386 403.591 169.021L403.349 170.535C403.167 171.565 402.955 172.291 402.758 173.184C402.334 174.698 401.88 176.212 401.426 177.635C400.487 180.421 399.503 182.994 398.474 185.522C396.415 190.594 394.22 195.408 391.98 200.207C389.739 205.006 387.529 209.729 385.213 214.437C382.896 219.145 380.671 223.792 378.264 228.561L358.872 218.237C363.792 209.471 368.439 200.313 372.739 191.245C374.858 186.703 376.871 182.086 378.658 177.62C379.551 175.38 380.399 173.078 381.08 171.02L381.549 169.506L381.913 168.068C381.913 167.704 382.109 167.19 382.124 166.947V166.539V165.691C382.124 165.282 382.049 164.934 381.958 164.45C381.822 163.556 381.625 162.572 381.383 161.543C380.898 159.484 380.247 157.274 379.505 155.049C377.992 150.507 376.22 145.965 374.252 141.424C372.284 136.882 370.195 132.341 367.97 127.799C365.745 123.258 363.428 118.716 361.052 114.538L382.654 103.472Z" fill="#212741"/>
<g opacity="0.7">
<path d="M382.654 103.472C384.925 108.452 387.044 113.191 389.103 118.111C391.162 123.031 393.221 127.89 395.159 132.901C397.096 137.912 398.837 143.013 400.503 148.357C401.305 151.052 402.016 153.807 402.667 156.789C402.97 158.303 403.243 159.817 403.455 161.482C403.7 163.344 403.796 165.222 403.742 167.099C403.742 167.735 403.651 168.386 403.591 169.021L403.349 170.535C403.167 171.565 402.955 172.291 402.758 173.184C402.334 174.698 401.88 176.212 401.426 177.635C400.487 180.421 399.503 182.994 398.474 185.522C396.415 190.594 394.22 195.408 391.98 200.207C389.739 205.006 387.529 209.729 385.213 214.437C382.896 219.145 380.671 223.792 378.264 228.561L358.872 218.237C363.792 209.471 368.439 200.313 372.739 191.245C374.858 186.703 376.871 182.086 378.658 177.62C379.551 175.38 380.399 173.078 381.08 171.02L381.549 169.506L381.913 168.068C381.913 167.704 382.109 167.19 382.124 166.947V166.539V165.691C382.124 165.282 382.049 164.934 381.958 164.45C381.822 163.556 381.625 162.572 381.383 161.543C380.898 159.484 380.247 157.274 379.505 155.049C377.992 150.507 376.22 145.965 374.252 141.424C372.284 136.882 370.195 132.341 367.97 127.799C365.745 123.258 363.428 118.716 361.052 114.538L382.654 103.472Z" fill="white"/>
</g>
<path d="M350.651 221.234L375.282 238.84C375.282 238.84 378.733 262.471 365.23 264.788C351.726 267.104 348.244 238.265 350.651 221.234Z" fill="#212741"/>
<path opacity="0.5" d="M350.651 221.234L375.282 238.84C375.282 238.84 378.733 262.471 365.23 264.788C351.726 267.104 348.244 238.265 350.651 221.234Z" fill="white"/>
<path d="M298.409 221.234L290.082 238.84C290.082 238.84 287.993 262.471 292.005 264.788C296.017 267.104 298.378 238.265 298.409 221.234Z" fill="#212741"/>
<path opacity="0.5" d="M298.409 221.234L290.082 238.84C290.082 238.84 287.993 262.471 292.005 264.788C296.017 267.104 298.378 238.265 298.409 221.234Z" fill="white"/>
<path opacity="0.5" d="M327.581 311.853C323.645 262.169 324.205 158.076 324.553 148.781H325.431C325.113 158.076 324.568 262.093 328.459 311.747L327.581 311.853Z" fill="#212741"/>
<path d="M443.663 71.0299C432.536 79.0835 423.286 110.678 449.824 123.439C476.362 136.201 513.784 135.172 502.476 107.423C491.167 79.6739 495.209 63.3546 468.505 60.1907C441.801 57.0267 443.663 71.0299 443.663 71.0299Z" fill="#263238"/>
<path d="M515.177 237.266L520.536 239.128L527.348 249.452C528.343 250.962 528.787 252.77 528.605 254.569L528.211 258.233C528.153 258.84 527.878 259.406 527.435 259.826C526.993 260.246 526.413 260.492 525.804 260.518L518.689 260.761C518.045 260.771 517.419 260.546 516.928 260.128C516.438 259.71 516.117 259.128 516.025 258.49L515.116 250.118C515.116 250.118 511.665 241.762 515.177 237.266Z" fill="#FFB573"/>
<path d="M506.715 153.141C506.593 156.986 506.563 161.104 506.593 165.085C506.624 169.067 506.699 173.124 506.836 177.196C507.123 185.204 507.683 193.198 508.667 200.994L508.758 201.948C508.758 201.948 508.758 201.645 508.758 201.721C508.758 201.796 508.758 201.721 508.758 201.932V202.311L508.879 202.78C509.046 203.446 509.258 204.203 509.485 204.99C509.939 206.504 510.484 208.2 510.999 209.835C512.134 213.12 513.406 216.45 514.708 219.766C516.01 223.081 517.372 226.381 518.78 229.651C520.188 232.921 521.656 236.206 523.14 239.082L511.801 245.683C509.667 242.246 507.941 239.022 506.17 235.722C504.398 232.421 502.748 229.121 501.098 225.791C499.448 222.46 497.874 219.1 496.345 215.618C495.573 213.877 494.831 212.121 494.104 210.244C493.741 209.305 493.393 208.336 493.06 207.216L492.817 206.383L492.56 205.445C492.484 205.127 492.409 204.688 492.333 204.309C492.257 203.931 492.182 203.25 492.136 202.72L492.242 203.673C490.577 195.241 489.411 186.855 488.518 178.468C488.079 174.274 487.701 170.096 487.383 165.888C487.065 161.679 486.807 157.562 486.641 153.171L506.715 153.141Z" fill="#212741"/>
<path opacity="0.5" d="M506.715 153.141C506.593 156.986 506.563 161.104 506.593 165.085C506.624 169.067 506.699 173.124 506.836 177.196C507.123 185.204 507.683 193.198 508.667 200.994L508.758 201.948C508.758 201.948 508.758 201.645 508.758 201.721C508.758 201.796 508.758 201.721 508.758 201.932V202.311L508.879 202.78C509.046 203.446 509.258 204.203 509.485 204.99C509.939 206.504 510.484 208.2 510.999 209.835C512.134 213.12 513.406 216.45 514.708 219.766C516.01 223.081 517.372 226.381 518.78 229.651C520.188 232.921 521.656 236.206 523.14 239.082L511.801 245.683C509.667 242.246 507.941 239.022 506.17 235.722C504.398 232.421 502.748 229.121 501.098 225.791C499.448 222.46 497.874 219.1 496.345 215.618C495.573 213.877 494.831 212.121 494.104 210.244C493.741 209.305 493.393 208.336 493.06 207.216L492.817 206.383L492.56 205.445C492.484 205.127 492.409 204.688 492.333 204.309C492.257 203.931 492.182 203.25 492.136 202.72L492.242 203.673C490.577 195.241 489.411 186.855 488.518 178.468C488.079 174.274 487.701 170.096 487.383 165.888C487.065 161.679 486.807 157.562 486.641 153.171L506.715 153.141Z" fill="white"/>
<path d="M497.253 222.627C497.253 222.627 495.497 325.887 491.197 367.684C485.717 422.183 471.018 468.204 467.551 505.853L455.38 504.112C455.38 504.112 454.593 411.934 465.659 367.866C455.622 321.133 455.38 222.687 455.38 222.687L497.253 222.627Z" fill="#FFB573"/>
<path d="M490.047 536.069C488.325 534.84 486.419 533.889 484.4 533.254C484.4 533.254 474.364 527.668 468.823 510.849L461.057 508.926C459.872 508.578 458.604 508.649 457.466 509.126C456.327 509.603 455.387 510.457 454.805 511.545C454.643 511.846 454.54 512.175 454.502 512.514C454.421 514.336 454.461 516.162 454.623 517.979C454.85 523.671 455.774 536.448 455.774 536.448H457.106C457.022 532.577 457.168 528.705 457.545 524.852C458.12 521.098 460.875 525.533 462.45 529.772C464.024 534.011 470.019 538.522 478.754 538.734C488.942 538.931 493.044 538.537 490.047 536.069Z" fill="#263238"/>
<path d="M456.182 511.681C455.339 508.138 454.777 504.534 454.502 500.903L468.883 502.689C468.883 502.689 468.777 511.439 471.412 517.298C466.157 515.949 461.054 514.067 456.182 511.681Z" fill="#263238"/>
<path d="M486.671 222.627C486.671 222.627 469.413 326.992 459.694 368.88C447.023 423.53 445.267 509.592 445.267 509.592L433.838 508.487C433.838 508.487 420.697 430.024 434.837 368.88C433.777 321.951 442.921 222.627 442.921 222.627H486.671Z" fill="#FFB573"/>
<path d="M459.543 536.069C458.003 534.823 456.248 533.869 454.365 533.254C454.365 533.254 448.734 527.668 446.024 510.849L438.652 508.926C437.4 508.623 436.086 508.711 434.886 509.18C433.687 509.648 432.66 510.474 431.945 511.545C431.741 511.842 431.582 512.169 431.476 512.514C431.096 514.317 430.833 516.142 430.689 517.979C429.947 523.671 430.583 536.448 430.583 536.448H431.915L432.445 524.852C432.642 520.916 435.654 525.533 436.517 529.772C437.38 534.011 439.212 538.522 447.841 538.734C457.908 538.931 462.086 538.537 459.543 536.069Z" fill="#263238"/>
<path d="M431.688 511.681C431.204 507.745 431.052 500.903 431.052 500.903L447.432 502.719C447.432 502.719 445.449 510.501 447.084 516.344C438.833 514.179 431.688 511.681 431.688 511.681Z" fill="#263238"/>
<path d="M504.519 148.448C505.125 158.47 505.594 186.794 500.205 230.105H441.513C441.589 209.123 443.299 189.034 433.732 149.584C433.358 148.152 433.295 146.657 433.545 145.199C433.796 143.74 434.354 142.352 435.184 141.127C436.014 139.902 437.095 138.868 438.356 138.094C439.617 137.321 441.029 136.825 442.497 136.64C445.812 136.216 449.597 135.838 453.548 135.656C462.034 135.035 470.555 135.035 479.041 135.656C484.552 136.156 490.456 137.034 494.952 137.806C497.511 138.246 499.846 139.536 501.582 141.467C503.318 143.398 504.353 145.857 504.519 148.448Z" fill="white"/>
<path d="M457.938 107.922C459.861 116.127 462.041 131.145 456.515 136.686C456.515 136.686 461.632 144.815 477.482 151.657C486.217 146.374 482.024 136.686 482.024 136.686C472.789 134.506 472.774 127.708 474.121 121.335L457.938 107.922Z" fill="#FFB573"/>
<path opacity="0.2" d="M464.539 113.372L474.106 121.275C473.76 122.766 473.552 124.286 473.485 125.816C469.973 125.301 465.023 121.471 464.508 117.808C464.249 116.34 464.259 114.837 464.539 113.372Z" fill="black"/>
<path d="M448.719 92.8747C452.413 106.212 453.715 111.934 461.768 117.672C473.879 126.331 488.836 119.549 489.018 105.561C489.199 92.9504 483.114 73.2401 469.232 70.1518C455.35 67.0636 445.01 79.5226 448.719 92.8747Z" fill="#FFB573"/>
<path d="M451.444 99.9141C454.699 97.0984 457.938 84.7756 456.243 79.5377C467.884 80.4914 477.588 76.3889 482.281 80.3552C482.781 74.2998 477.391 66.0947 467.809 66.1855C458.226 66.2764 435.185 77.7968 451.444 99.9141Z" fill="#263238"/>
<path d="M467.233 93.3137C467.46 94.4188 468.232 95.206 468.944 95.0698C469.655 94.9335 470.049 93.9495 469.807 92.8596C469.565 91.7696 468.808 90.9673 468.096 91.1035C467.385 91.2397 466.991 92.2237 467.233 93.3137Z" fill="#263238"/>
<path d="M480.389 90.9067C480.631 92.0118 481.403 92.799 482.114 92.6627C482.826 92.5265 483.22 91.5425 482.977 90.4525C482.735 89.3626 481.978 88.5602 481.252 88.6965C480.525 88.8327 480.162 89.8167 480.389 90.9067Z" fill="#263238"/>
<path d="M480.964 88.8024L483.416 87.5762C483.416 87.5762 482.508 89.8773 480.964 88.8024Z" fill="#263238"/>
<path d="M478.466 93.2835C479.98 95.6181 481.797 97.741 483.871 99.5962C483.394 100.1 482.811 100.49 482.164 100.739C481.517 100.988 480.822 101.089 480.131 101.034L478.466 93.2835Z" fill="#ED893E"/>
<path d="M475.726 106.56C476.351 106.555 476.974 106.494 477.588 106.378C477.63 106.371 477.67 106.356 477.705 106.332C477.74 106.309 477.77 106.279 477.793 106.243C477.816 106.207 477.831 106.167 477.837 106.125C477.844 106.083 477.841 106.041 477.83 106C477.809 105.915 477.756 105.842 477.683 105.795C477.611 105.747 477.523 105.728 477.437 105.742C476.064 106.006 474.649 105.949 473.302 105.576C471.955 105.203 470.712 104.524 469.671 103.593C469.608 103.531 469.524 103.496 469.436 103.496C469.348 103.496 469.264 103.531 469.201 103.593C469.143 103.657 469.11 103.741 469.11 103.827C469.11 103.914 469.143 103.998 469.201 104.062C470.985 105.685 473.315 106.577 475.726 106.56Z" fill="#263238"/>
<path d="M445.706 102.124C447.17 104.393 449.444 106.017 452.064 106.666C455.546 107.483 457.015 104.41 455.834 101.277C454.774 98.4457 451.701 94.6156 448.265 95.2212C444.828 95.8267 443.95 99.3389 445.706 102.124Z" fill="#FFB573"/>
<path d="M464.311 87.6519C464.401 87.6436 464.488 87.6164 464.566 87.572C464.644 87.5276 464.712 87.4672 464.766 87.3946C465.239 86.7363 465.866 86.2024 466.591 85.8386C467.315 85.4748 468.118 85.2919 468.929 85.3054C469.099 85.3181 469.267 85.2632 469.398 85.1528C469.528 85.0424 469.61 84.8851 469.625 84.715C469.627 84.5411 469.564 84.3726 469.45 84.2415C469.335 84.1104 469.177 84.0257 469.004 84.0035C467.977 83.9698 466.957 84.1881 466.033 84.6394C465.11 85.0906 464.311 85.7611 463.706 86.5922C463.604 86.7309 463.561 86.9043 463.587 87.0745C463.612 87.2447 463.704 87.3979 463.842 87.5005C463.979 87.5981 464.143 87.651 464.311 87.6519Z" fill="#263238"/>
<path d="M484.734 83.5948C484.811 83.5653 484.881 83.5206 484.941 83.4634C485.001 83.4063 485.049 83.3377 485.082 83.2618C485.117 83.1833 485.136 83.0986 485.139 83.0127C485.141 82.9267 485.126 82.8411 485.095 82.7609C485.064 82.6806 485.018 82.6073 484.958 82.5452C484.899 82.4831 484.827 82.4333 484.749 82.3989C483.825 81.9186 482.8 81.6678 481.759 81.6678C480.718 81.6678 479.692 81.9186 478.769 82.3989C478.696 82.445 478.632 82.5053 478.583 82.5762C478.533 82.6471 478.498 82.7271 478.48 82.8117C478.462 82.8963 478.46 82.9837 478.476 83.0687C478.492 83.1538 478.525 83.2349 478.572 83.3072C478.666 83.4539 478.812 83.5593 478.981 83.6015C479.15 83.6437 479.329 83.6197 479.48 83.5343C480.213 83.1547 481.025 82.9566 481.85 82.9566C482.674 82.9566 483.487 83.1547 484.219 83.5343C484.295 83.5808 484.381 83.6104 484.47 83.6208C484.558 83.6313 484.648 83.6224 484.734 83.5948Z" fill="#263238"/>
<path d="M467.793 91.2095L470.246 89.9833C470.246 89.9833 469.338 92.3449 467.793 91.2095Z" fill="#263238"/>
<path d="M500.205 230.105L501.371 390.649C474.121 392.874 448.068 392.042 423.483 387.228C421.863 326.992 410.085 260.609 441.513 230.105H500.205Z" fill="#263238"/>
<path opacity="0.2" d="M469.852 338.754L463.706 285.921L478.466 270.676L469.852 338.754Z" fill="black"/>
<path d="M507.169 158.409C506.427 144.315 504.141 138.729 494.876 137.034C485.611 135.338 476.907 134.369 476.907 134.369C480.059 136.431 482.731 139.146 484.743 142.331C486.754 145.515 488.058 149.095 488.566 152.827C489.074 156.559 488.775 160.357 487.688 163.963C486.601 167.569 484.752 170.9 482.266 173.729C476.029 162.133 452.367 143.967 458.044 134.506C452.511 134.224 446.965 134.62 441.528 135.686C432.445 137.442 429.781 143.725 432.021 157.713C437.789 193.44 433.384 236.827 433.384 236.827C433.384 236.827 467.188 252.752 478.421 255.795C496.299 251.435 500.235 238.931 500.235 238.931C500.235 238.931 507.986 172.579 507.169 158.409Z" fill="#212741"/>
<path opacity="0.6" d="M507.169 158.409C506.427 144.315 504.141 138.729 494.876 137.034C485.611 135.338 476.907 134.369 476.907 134.369C480.059 136.431 482.731 139.146 484.743 142.331C486.754 145.515 488.058 149.095 488.566 152.827C489.074 156.559 488.775 160.357 487.688 163.963C486.601 167.569 484.752 170.9 482.266 173.729C476.029 162.133 452.367 143.967 458.044 134.506C452.511 134.224 446.965 134.62 441.528 135.686C432.445 137.442 429.781 143.725 432.021 157.713C437.789 193.44 433.384 236.827 433.384 236.827C433.384 236.827 467.188 252.752 478.421 255.795C496.299 251.435 500.235 238.931 500.235 238.931C500.235 238.931 507.986 172.579 507.169 158.409Z" fill="white"/>
<path d="M456.803 185.78C450.505 176.591 445.782 163.072 449.445 156.244C450.129 154.986 451.161 153.951 452.417 153.263C453.674 152.576 455.102 152.265 456.53 152.369C457.755 152.362 458.967 152.615 460.086 153.111C461.205 153.606 462.207 154.334 463.025 155.245C467.112 159.711 468.535 168.991 467.37 183.585L465.856 183.464C466.976 169.506 465.644 160.362 461.92 156.29C461.248 155.53 460.42 154.924 459.492 154.514C458.565 154.104 457.56 153.899 456.545 153.913C455.404 153.816 454.259 154.05 453.246 154.587C452.234 155.124 451.398 155.941 450.838 156.941C447.917 162.421 451.111 174.698 458.105 184.887L456.803 185.78Z" fill="#263238"/>
<path d="M458.09 188.474C459.369 188.474 460.406 186.963 460.406 185.098C460.406 183.234 459.369 181.723 458.09 181.723C456.81 181.723 455.773 183.234 455.773 185.098C455.773 186.963 456.81 188.474 458.09 188.474Z" fill="#263238"/>
<path d="M469.156 184.19C469.156 186.052 468.111 187.566 466.84 187.566C465.568 187.566 464.524 186.052 464.524 184.19C464.524 182.328 465.568 180.814 466.84 180.814C468.111 180.814 469.156 182.328 469.156 184.19Z" fill="#263238"/>
<path d="M499.055 156.699C499.105 157.444 498.934 158.188 498.564 158.837C498.194 159.486 497.64 160.012 496.973 160.348C496.306 160.684 495.554 160.816 494.812 160.727C494.07 160.639 493.371 160.333 492.802 159.849C492.233 159.365 491.819 158.724 491.612 158.006C491.405 157.288 491.415 156.525 491.639 155.812C491.864 155.099 492.294 154.469 492.875 153.999C493.456 153.529 494.163 153.242 494.907 153.171C495.924 153.092 496.931 153.418 497.708 154.079C498.486 154.74 498.97 155.682 499.055 156.699Z" fill="#263238"/>
<path d="M455.773 153.943C455.618 153.941 455.468 153.892 455.341 153.803C455.214 153.714 455.117 153.589 455.062 153.444C453.027 147.277 452.422 140.729 453.291 134.294C453.3 134.193 453.33 134.095 453.378 134.005C453.426 133.916 453.491 133.837 453.57 133.773C453.649 133.71 453.74 133.663 453.838 133.635C453.936 133.608 454.038 133.6 454.138 133.612C454.341 133.635 454.526 133.737 454.654 133.896C454.781 134.055 454.841 134.258 454.82 134.46C454.039 140.657 454.617 146.949 456.515 152.899C456.554 152.992 456.575 153.092 456.574 153.194C456.574 153.295 456.554 153.395 456.514 153.488C456.475 153.581 456.417 153.665 456.344 153.736C456.272 153.806 456.186 153.861 456.091 153.898C455.99 153.938 455.881 153.953 455.773 153.943Z" fill="#263238"/>
<path d="M496.738 156.653C496.541 156.654 496.351 156.578 496.208 156.443C496.064 156.308 495.978 156.123 495.966 155.927C495.966 155.76 494.891 138.82 481.645 135.702C481.447 135.655 481.275 135.531 481.167 135.358C481.06 135.185 481.025 134.977 481.07 134.778C481.12 134.579 481.247 134.407 481.422 134.299C481.597 134.192 481.808 134.157 482.009 134.203C496.375 137.594 497.495 155.669 497.51 155.851C497.516 155.952 497.502 156.052 497.469 156.148C497.436 156.243 497.384 156.33 497.316 156.405C497.248 156.48 497.166 156.54 497.075 156.583C496.983 156.625 496.884 156.649 496.784 156.653H496.738Z" fill="#263238"/>
<path d="M458.408 214.573L471.654 164.117C471.888 163.348 472.363 162.676 473.009 162.198C473.656 161.721 474.438 161.465 475.242 161.467L511.317 162.815C511.666 162.808 512.011 162.884 512.325 163.038C512.638 163.191 512.91 163.417 513.119 163.697C513.328 163.976 513.467 164.302 513.525 164.646C513.582 164.99 513.557 165.343 513.451 165.676L500.144 216.132C499.912 216.902 499.438 217.576 498.791 218.053C498.144 218.531 497.36 218.786 496.557 218.782L460.497 217.434C460.152 217.434 459.811 217.352 459.504 217.196C459.196 217.039 458.93 216.812 458.726 216.534C458.523 216.255 458.388 215.932 458.333 215.592C458.277 215.251 458.303 214.902 458.408 214.573Z" fill="#263238"/>
<path d="M458.786 215.466L472.093 165.01C472.323 164.239 472.797 163.563 473.444 163.086C474.091 162.608 474.876 162.353 475.681 162.36L511.741 163.708C512.091 163.697 512.438 163.772 512.753 163.924C513.069 164.076 513.343 164.303 513.552 164.583C513.761 164.864 513.9 165.191 513.956 165.537C514.013 165.882 513.985 166.236 513.875 166.569L500.583 217.041C500.346 217.809 499.867 218.48 499.218 218.954C498.569 219.429 497.785 219.681 496.981 219.675L460.921 218.327C460.571 218.338 460.223 218.264 459.908 218.111C459.593 217.959 459.319 217.733 459.109 217.452C458.9 217.171 458.761 216.844 458.705 216.499C458.649 216.153 458.677 215.799 458.786 215.466Z" fill="#212741"/>
<path d="M454.048 198.451L454.684 192.804L463.282 183.903C464.543 182.61 466.211 181.792 468.005 181.586L471.669 181.162C472.274 181.086 472.886 181.232 473.392 181.571C473.898 181.91 474.265 182.421 474.424 183.009L476.211 189.913C476.343 190.529 476.251 191.173 475.951 191.728C475.652 192.283 475.164 192.713 474.576 192.94L466.598 195.635C466.598 195.635 459.21 200.903 454.048 198.451Z" fill="#FFB573"/>
<path d="M449.824 151.96C449.279 152.672 448.583 153.641 447.962 154.504L446.07 157.244C444.808 159.091 443.597 160.963 442.436 162.86C440.116 166.614 437.989 170.485 436.063 174.456C434.22 178.247 432.701 182.187 431.522 186.234C430.423 189.742 429.947 193.416 430.114 197.088L426.707 191.472C425.754 190.866 425.784 191.078 425.996 191.124C426.377 191.245 426.766 191.336 427.162 191.396C428.327 191.599 429.506 191.721 430.689 191.759C433.411 191.837 436.136 191.752 438.849 191.502C441.634 191.26 444.42 190.866 447.144 190.352C449.803 189.855 452.423 189.172 454.986 188.308L460.012 200.419C456.932 201.814 453.755 202.982 450.505 203.916C447.358 204.846 444.164 205.614 440.938 206.217C437.636 206.842 434.299 207.266 430.946 207.488C429.096 207.61 427.24 207.61 425.39 207.488C424.27 207.42 423.156 207.263 422.06 207.019C420.301 206.667 418.633 205.962 417.155 204.945L414.294 203.068L413.749 199.344C412.983 193.575 413.285 187.715 414.642 182.056C415.809 176.938 417.41 171.93 419.426 167.084C421.355 162.404 423.522 157.826 425.92 153.368C427.101 151.158 428.327 148.973 429.599 146.813L431.567 143.589C432.248 142.484 432.869 141.5 433.701 140.273L449.824 151.96Z" fill="#212741"/>
<path opacity="0.6" d="M449.824 151.96C449.279 152.672 448.583 153.641 447.962 154.504L446.07 157.244C444.808 159.091 443.597 160.963 442.436 162.86C440.116 166.614 437.989 170.485 436.063 174.456C434.22 178.247 432.701 182.187 431.522 186.234C430.423 189.742 429.947 193.416 430.114 197.088L426.707 191.472C425.754 190.866 425.784 191.078 425.996 191.124C426.377 191.245 426.766 191.336 427.162 191.396C428.327 191.599 429.506 191.721 430.689 191.759C433.411 191.837 436.136 191.752 438.849 191.502C441.634 191.26 444.42 190.866 447.144 190.352C449.803 189.855 452.423 189.172 454.986 188.308L460.012 200.419C456.932 201.814 453.755 202.982 450.505 203.916C447.358 204.846 444.164 205.614 440.938 206.217C437.636 206.842 434.299 207.266 430.946 207.488C429.096 207.61 427.24 207.61 425.39 207.488C424.27 207.42 423.156 207.263 422.06 207.019C420.301 206.667 418.633 205.962 417.155 204.945L414.294 203.068L413.749 199.344C412.983 193.575 413.285 187.715 414.642 182.056C415.809 176.938 417.41 171.93 419.426 167.084C421.355 162.404 423.522 157.826 425.92 153.368C427.101 151.158 428.327 148.973 429.599 146.813L431.567 143.589C432.248 142.484 432.869 141.5 433.701 140.273L449.824 151.96Z" fill="white"/>
</svg>
